<?xml version="1.0" encoding="UTF-8" standalone="no"?>
<!-- Title: ParallelPathOverview Pages: 1 -->
<svg width="807pt" height="1081pt"
 viewBox="0.00 0.00 807.40 1081.40" xmlns="http://www.w3.org/2000/svg" xmlns:xlink="http://www.w3.org/1999/xlink">
<g id="graph0" class="graph" transform="scale(1 1) rotate(0) translate(25.2 1056.2)">
<title>ParallelPathOverview</title>
<polygon fill="white" stroke="transparent" points="-25.2,25.2 -25.2,-1056.2 782.2,-1056.2 782.2,25.2 -25.2,25.2"/>
<text text-anchor="middle" x="378.5" y="-1009.4" font-family="Noto Sans CJK KR" font-size="22.00">C · C++ · WEB 3트랙 병렬 PATH</text>
<!-- START -->
<g id="node1" class="node">
<title>START</title>
<path fill="#e2e8f0" stroke="#475569" stroke-width="1.8" d="M433.5,-992.5C433.5,-992.5 323.5,-992.5 323.5,-992.5 317.5,-992.5 311.5,-986.5 311.5,-980.5 311.5,-980.5 311.5,-964.5 311.5,-964.5 311.5,-958.5 317.5,-952.5 323.5,-952.5 323.5,-952.5 433.5,-952.5 433.5,-952.5 439.5,-952.5 445.5,-958.5 445.5,-964.5 445.5,-964.5 445.5,-980.5 445.5,-980.5 445.5,-986.5 439.5,-992.5 433.5,-992.5"/>
<text text-anchor="middle" x="378.5" y="-975.9" font-family="Noto Sans CJK KR" font-size="12.00">G00 guide&#45;git 01~06</text>
<text text-anchor="middle" x="378.5" y="-962.9" font-family="Noto Sans CJK KR" font-size="12.00">세 트랙 공통 완료</text>
</g>
<!-- TRACKS -->
<g id="node2" class="node">
<title>TRACKS</title>
<path fill="#f8fafc" stroke="transparent" d="M745,-906C745,-906 12,-906 12,-906 6,-906 0,-900 0,-894 0,-894 0,-347 0,-347 0,-341 6,-335 12,-335 12,-335 745,-335 745,-335 751,-335 757,-341 757,-347 757,-347 757,-894 757,-894 757,-900 751,-906 745,-906"/>
<polygon fill="#dbeafe" stroke="transparent" points="19.5,-849.5 19.5,-886.5 203.5,-886.5 203.5,-849.5 19.5,-849.5"/>
<polygon fill="none" stroke="#2563eb" points="19.5,-849.5 19.5,-886.5 203.5,-886.5 203.5,-849.5 19.5,-849.5"/>
<text text-anchor="start" x="76" y="-864.9" font-family="Noto Sans CJK KR" font-weight="bold" font-size="17.00">C TRACK</text>
<polygon fill="#f8fafc" stroke="transparent" points="19.5,-818.5 19.5,-849.5 203.5,-849.5 203.5,-818.5 19.5,-818.5"/>
<polygon fill="none" stroke="#2563eb" points="19.5,-818.5 19.5,-849.5 203.5,-849.5 203.5,-818.5 19.5,-818.5"/>
<text text-anchor="start" x="60.5" y="-831.9" font-family="Noto Sans CJK KR" font-weight="bold" font-size="12.00">C&#45;G01</text>
<text text-anchor="start" x="94.5" y="-831.9" font-family="Noto Sans CJK KR" font-size="12.00"> C 01~04·06</text>
<polygon fill="#dbeafe" stroke="transparent" points="19.5,-787.5 19.5,-818.5 203.5,-818.5 203.5,-787.5 19.5,-787.5"/>
<polygon fill="none" stroke="#2563eb" points="19.5,-787.5 19.5,-818.5 203.5,-818.5 203.5,-787.5 19.5,-787.5"/>
<text text-anchor="start" x="62" y="-800.9" font-family="Noto Sans CJK KR" font-weight="bold" font-size="12.00">P01</text>
<text text-anchor="start" x="84" y="-800.9" font-family="Noto Sans CJK KR" font-size="12.00"> c&#45;foundation</text>
<polygon fill="#f8fafc" stroke="transparent" points="19.5,-756.5 19.5,-787.5 203.5,-787.5 203.5,-756.5 19.5,-756.5"/>
<polygon fill="none" stroke="#2563eb" points="19.5,-756.5 19.5,-787.5 203.5,-787.5 203.5,-756.5 19.5,-756.5"/>
<text text-anchor="start" x="61.5" y="-769.9" font-family="Noto Sans CJK KR" font-weight="bold" font-size="12.00">C&#45;G02</text>
<text text-anchor="start" x="95.5" y="-769.9" font-family="Noto Sans CJK KR" font-size="12.00"> Unix 01~03</text>
<polygon fill="#dbeafe" stroke="transparent" points="19.5,-725.5 19.5,-756.5 203.5,-756.5 203.5,-725.5 19.5,-725.5"/>
<polygon fill="none" stroke="#2563eb" points="19.5,-725.5 19.5,-756.5 203.5,-756.5 203.5,-725.5 19.5,-725.5"/>
<text text-anchor="start" x="41.5" y="-738.9" font-family="Noto Sans CJK KR" font-weight="bold" font-size="12.00">P02</text>
<text text-anchor="start" x="63.5" y="-738.9" font-family="Noto Sans CJK KR" font-size="12.00"> buffered&#45;line&#45;reader</text>
<polygon fill="#f8fafc" stroke="transparent" points="19.5,-694.5 19.5,-725.5 203.5,-725.5 203.5,-694.5 19.5,-694.5"/>
<polygon fill="none" stroke="#2563eb" points="19.5,-694.5 19.5,-725.5 203.5,-725.5 203.5,-694.5 19.5,-694.5"/>
<text text-anchor="start" x="80.5" y="-707.9" font-family="Noto Sans CJK KR" font-weight="bold" font-size="12.00">C&#45;G03</text>
<text text-anchor="start" x="114.5" y="-707.9" font-family="Noto Sans CJK KR" font-size="12.00"> C 05</text>
<polygon fill="#dbeafe" stroke="transparent" points="19.5,-663.5 19.5,-694.5 203.5,-694.5 203.5,-663.5 19.5,-663.5"/>
<polygon fill="none" stroke="#2563eb" points="19.5,-663.5 19.5,-694.5 203.5,-694.5 203.5,-663.5 19.5,-663.5"/>
<text text-anchor="start" x="58" y="-676.9" font-family="Noto Sans CJK KR" font-weight="bold" font-size="12.00">P03</text>
<text text-anchor="start" x="80" y="-676.9" font-family="Noto Sans CJK KR" font-size="12.00"> format&#45;printer</text>
<polygon fill="#f8fafc" stroke="transparent" points="19.5,-632.5 19.5,-663.5 203.5,-663.5 203.5,-632.5 19.5,-632.5"/>
<polygon fill="none" stroke="#2563eb" points="19.5,-632.5 19.5,-663.5 203.5,-663.5 203.5,-632.5 19.5,-632.5"/>
<text text-anchor="start" x="53.5" y="-645.9" font-family="Noto Sans CJK KR" font-weight="bold" font-size="12.00">C&#45;G04</text>
<text text-anchor="start" x="87.5" y="-645.9" font-family="Noto Sans CJK KR" font-size="12.00"> C 08 + Unix 04</text>
<polygon fill="#dbeafe" stroke="transparent" points="19.5,-601.5 19.5,-632.5 203.5,-632.5 203.5,-601.5 19.5,-601.5"/>
<polygon fill="none" stroke="#2563eb" points="19.5,-601.5 19.5,-632.5 203.5,-632.5 203.5,-601.5 19.5,-601.5"/>
<text text-anchor="start" x="43" y="-614.9" font-family="Noto Sans CJK KR" font-weight="bold" font-size="12.00">P04</text>
<text text-anchor="start" x="65" y="-614.9" font-family="Noto Sans CJK KR" font-size="12.00"> signal&#45;message&#45;bus</text>
<polygon fill="#f8fafc" stroke="transparent" points="19.5,-570.5 19.5,-601.5 203.5,-601.5 203.5,-570.5 19.5,-570.5"/>
<polygon fill="none" stroke="#2563eb" points="19.5,-570.5 19.5,-601.5 203.5,-601.5 203.5,-570.5 19.5,-570.5"/>
<text text-anchor="start" x="33" y="-583.9" font-family="Noto Sans CJK KR" font-weight="bold" font-size="12.00">C&#45;G05</text>
<text text-anchor="start" x="67" y="-583.9" font-family="Noto Sans CJK KR" font-size="12.00"> C 07·09 + Unix 05~06</text>
<polygon fill="#dbeafe" stroke="transparent" points="19.5,-539.5 19.5,-570.5 203.5,-570.5 203.5,-539.5 19.5,-539.5"/>
<polygon fill="none" stroke="#2563eb" points="19.5,-539.5 19.5,-570.5 203.5,-570.5 203.5,-539.5 19.5,-539.5"/>
<text text-anchor="start" x="67.5" y="-552.9" font-family="Noto Sans CJK KR" font-weight="bold" font-size="12.00">P05</text>
<text text-anchor="start" x="89.5" y="-552.9" font-family="Noto Sans CJK KR" font-size="12.00"> small&#45;shell</text>
<polygon fill="#f8fafc" stroke="transparent" points="19.5,-508.5 19.5,-539.5 203.5,-539.5 203.5,-508.5 19.5,-508.5"/>
<polygon fill="none" stroke="#2563eb" points="19.5,-508.5 19.5,-539.5 203.5,-539.5 203.5,-508.5 19.5,-508.5"/>
<text text-anchor="start" x="47.5" y="-521.9" font-family="Noto Sans CJK KR" font-weight="bold" font-size="12.00">C&#45;G06</text>
<text text-anchor="start" x="81.5" y="-521.9" font-family="Noto Sans CJK KR" font-size="12.00"> C 10 + OS 01~06</text>
<polygon fill="#dbeafe" stroke="transparent" points="19.5,-477.5 19.5,-508.5 203.5,-508.5 203.5,-477.5 19.5,-477.5"/>
<polygon fill="none" stroke="#2563eb" points="19.5,-477.5 19.5,-508.5 203.5,-508.5 203.5,-477.5 19.5,-477.5"/>
<text text-anchor="start" x="60" y="-490.9" font-family="Noto Sans CJK KR" font-weight="bold" font-size="12.00">P06</text>
<text text-anchor="start" x="82" y="-490.9" font-family="Noto Sans CJK KR" font-size="12.00"> thread&#45;dining</text>
<polygon fill="#f8fafc" stroke="transparent" points="19.5,-446.5 19.5,-477.5 203.5,-477.5 203.5,-446.5 19.5,-446.5"/>
<polygon fill="none" stroke="#2563eb" points="19.5,-446.5 19.5,-477.5 203.5,-477.5 203.5,-446.5 19.5,-446.5"/>
<text text-anchor="start" x="28.5" y="-459.9" font-family="Noto Sans CJK KR" font-weight="bold" font-size="12.00">C&#45;G07</text>
<text text-anchor="start" x="62.5" y="-459.9" font-family="Noto Sans CJK KR" font-size="12.00"> Unix 07~09 + OS 07~10</text>
<polygon fill="#fef3c7" stroke="transparent" points="19.5,-415.5 19.5,-446.5 203.5,-446.5 203.5,-415.5 19.5,-415.5"/>
<polygon fill="none" stroke="#2563eb" points="19.5,-415.5 19.5,-446.5 203.5,-446.5 203.5,-415.5 19.5,-415.5"/>
<text text-anchor="start" x="50.5" y="-428.9" font-family="Noto Sans CJK KR" font-weight="bold" font-size="12.00">C&#45;S01</text>
<text text-anchor="start" x="83.5" y="-428.9" font-family="Noto Sans CJK KR" font-size="12.00"> CPP&#45;G02 동기화</text>
<polygon fill="#dbeafe" stroke="transparent" points="19.5,-384.5 19.5,-415.5 203.5,-415.5 203.5,-384.5 19.5,-384.5"/>
<polygon fill="none" stroke="#2563eb" points="19.5,-384.5 19.5,-415.5 203.5,-415.5 203.5,-384.5 19.5,-384.5"/>
<text text-anchor="start" x="71.5" y="-397.9" font-family="Noto Sans CJK KR" font-weight="bold" font-size="12.00">P09</text>
<text text-anchor="start" x="93.5" y="-397.9" font-family="Noto Sans CJK KR" font-size="12.00"> stack&#45;sort</text>
<polygon fill="#bfdbfe" stroke="transparent" points="19.5,-353.5 19.5,-384.5 203.5,-384.5 203.5,-353.5 19.5,-353.5"/>
<polygon fill="none" stroke="#2563eb" points="19.5,-353.5 19.5,-384.5 203.5,-384.5 203.5,-353.5 19.5,-353.5"/>
<text text-anchor="start" x="94.5" y="-366.9" font-family="Noto Sans CJK KR" font-weight="bold" font-size="12.00">C 완료</text>
<polygon fill="none" stroke="#2563eb" points="18.5,-352.5 18.5,-887.5 204.5,-887.5 204.5,-352.5 18.5,-352.5"/>
<polygon fill="#ede9fe" stroke="transparent" points="223.5,-830.5 223.5,-886.5 458.5,-886.5 458.5,-830.5 223.5,-830.5"/>
<polygon fill="none" stroke="#7c3aed" points="223.5,-830.5 223.5,-886.5 458.5,-886.5 458.5,-830.5 223.5,-830.5"/>
<text text-anchor="start" x="295.5" y="-855.4" font-family="Noto Sans CJK KR" font-weight="bold" font-size="17.00">C++ TRACK</text>
<polygon fill="#f8fafc" stroke="transparent" points="223.5,-780.5 223.5,-830.5 458.5,-830.5 458.5,-780.5 223.5,-780.5"/>
<polygon fill="none" stroke="#7c3aed" points="223.5,-780.5 223.5,-830.5 458.5,-830.5 458.5,-780.5 223.5,-780.5"/>
<text text-anchor="start" x="285.5" y="-803.4" font-family="Noto Sans CJK KR" font-weight="bold" font-size="12.00">CPP&#45;G01</text>
<text text-anchor="start" x="335.5" y="-803.4" font-family="Noto Sans CJK KR" font-size="12.00"> C++ 01~05</text>
<polygon fill="#ede9fe" stroke="transparent" points="223.5,-730.5 223.5,-780.5 458.5,-780.5 458.5,-730.5 223.5,-730.5"/>
<polygon fill="none" stroke="#7c3aed" points="223.5,-730.5 223.5,-780.5 458.5,-780.5 458.5,-730.5 223.5,-730.5"/>
<text text-anchor="start" x="284" y="-753.4" font-family="Noto Sans CJK KR" font-weight="bold" font-size="12.00">P07</text>
<text text-anchor="start" x="306" y="-753.4" font-family="Noto Sans CJK KR" font-size="12.00"> cpp&#45;foundation</text>
<polygon fill="#f8fafc" stroke="transparent" points="223.5,-669.5 223.5,-730.5 458.5,-730.5 458.5,-669.5 223.5,-669.5"/>
<polygon fill="none" stroke="#7c3aed" points="223.5,-669.5 223.5,-730.5 458.5,-730.5 458.5,-669.5 223.5,-669.5"/>
<text text-anchor="start" x="316" y="-703.4" font-family="Noto Sans CJK KR" font-weight="bold" font-size="12.00">CPP&#45;G02</text>
<text text-anchor="start" x="256.5" y="-691.4" font-family="Noto Sans CJK KR" font-size="12.00">C++ 06~07 + Algorithms 01~11</text>
<polygon fill="#ede9fe" stroke="transparent" points="223.5,-620.5 223.5,-669.5 458.5,-669.5 458.5,-620.5 223.5,-620.5"/>
<polygon fill="none" stroke="#7c3aed" points="223.5,-620.5 223.5,-669.5 458.5,-669.5 458.5,-620.5 223.5,-620.5"/>
<text text-anchor="start" x="292" y="-642.9" font-family="Noto Sans CJK KR" font-weight="bold" font-size="12.00">P08</text>
<text text-anchor="start" x="314" y="-642.9" font-family="Noto Sans CJK KR" font-size="12.00"> stl&#45;container</text>
<polygon fill="#f8fafc" stroke="transparent" points="223.5,-560.5 223.5,-620.5 458.5,-620.5 458.5,-560.5 223.5,-560.5"/>
<polygon fill="none" stroke="#7c3aed" points="223.5,-560.5 223.5,-620.5 458.5,-620.5 458.5,-560.5 223.5,-560.5"/>
<text text-anchor="start" x="316" y="-593.9" font-family="Noto Sans CJK KR" font-weight="bold" font-size="12.00">CPP&#45;G03</text>
<text text-anchor="start" x="232.5" y="-581.9" font-family="Noto Sans CJK KR" font-size="12.00">Algorithms 12~16 + Architecture 01~10</text>
<polygon fill="#ede9fe" stroke="transparent" points="223.5,-511.5 223.5,-560.5 458.5,-560.5 458.5,-511.5 223.5,-511.5"/>
<polygon fill="none" stroke="#7c3aed" points="223.5,-511.5 223.5,-560.5 458.5,-560.5 458.5,-511.5 223.5,-511.5"/>
<text text-anchor="start" x="283" y="-533.9" font-family="Noto Sans CJK KR" font-weight="bold" font-size="12.00">P10</text>
<text text-anchor="start" x="305" y="-533.9" font-family="Noto Sans CJK KR" font-size="12.00"> ray&#45;scene&#45;tracer</text>
<polygon fill="#f8fafc" stroke="transparent" points="223.5,-451.5 223.5,-511.5 458.5,-511.5 458.5,-451.5 223.5,-451.5"/>
<polygon fill="none" stroke="#7c3aed" points="223.5,-451.5 223.5,-511.5 458.5,-511.5 458.5,-451.5 223.5,-451.5"/>
<text text-anchor="start" x="316" y="-484.9" font-family="Noto Sans CJK KR" font-weight="bold" font-size="12.00">CPP&#45;G04</text>
<text text-anchor="start" x="260" y="-472.9" font-family="Noto Sans CJK KR" font-size="12.00">C++ 08~09 + Networks 01~11</text>
<polygon fill="#ede9fe" stroke="transparent" points="223.5,-402.5 223.5,-451.5 458.5,-451.5 458.5,-402.5 223.5,-402.5"/>
<polygon fill="none" stroke="#7c3aed" points="223.5,-402.5 223.5,-451.5 458.5,-451.5 458.5,-402.5 223.5,-402.5"/>
<text text-anchor="start" x="286" y="-424.9" font-family="Noto Sans CJK KR" font-weight="bold" font-size="12.00">P11</text>
<text text-anchor="start" x="308" y="-424.9" font-family="Noto Sans CJK KR" font-size="12.00"> irc&#45;relay&#45;server</text>
<polygon fill="#ddd6fe" stroke="transparent" points="223.5,-353.5 223.5,-402.5 458.5,-402.5 458.5,-353.5 223.5,-353.5"/>
<polygon fill="none" stroke="#7c3aed" points="223.5,-353.5 223.5,-402.5 458.5,-402.5 458.5,-353.5 223.5,-353.5"/>
<text text-anchor="start" x="317.5" y="-375.9" font-family="Noto Sans CJK KR" font-weight="bold" font-size="12.00">C++ 완료</text>
<polygon fill="none" stroke="#7c3aed" points="222.5,-352.5 222.5,-887.5 459.5,-887.5 459.5,-352.5 222.5,-352.5"/>
<polygon fill="#d1fae5" stroke="transparent" points="478.5,-833.5 478.5,-886.5 738.5,-886.5 738.5,-833.5 478.5,-833.5"/>
<polygon fill="none" stroke="#059669" points="478.5,-833.5 478.5,-886.5 738.5,-886.5 738.5,-833.5 478.5,-833.5"/>
<text text-anchor="start" x="560" y="-856.9" font-family="Noto Sans CJK KR" font-weight="bold" font-size="17.00">WEB TRACK</text>
<polygon fill="#f8fafc" stroke="transparent" points="478.5,-786.5 478.5,-833.5 738.5,-833.5 738.5,-786.5 478.5,-786.5"/>
<polygon fill="none" stroke="#059669" points="478.5,-786.5 478.5,-833.5 738.5,-833.5 738.5,-786.5 478.5,-786.5"/>
<text text-anchor="start" x="534.5" y="-807.9" font-family="Noto Sans CJK KR" font-weight="bold" font-size="12.00">WEB&#45;G01</text>
<text text-anchor="start" x="588.5" y="-807.9" font-family="Noto Sans CJK KR" font-size="12.00"> Web Infra 01~07</text>
<polygon fill="#d1fae5" stroke="transparent" points="478.5,-740.5 478.5,-786.5 738.5,-786.5 738.5,-740.5 478.5,-740.5"/>
<polygon fill="none" stroke="#059669" points="478.5,-740.5 478.5,-786.5 738.5,-786.5 738.5,-740.5 478.5,-740.5"/>
<text text-anchor="start" x="552" y="-761.4" font-family="Noto Sans CJK KR" font-weight="bold" font-size="12.00">P12</text>
<text text-anchor="start" x="574" y="-761.4" font-family="Noto Sans CJK KR" font-size="12.00"> container&#45;stack</text>
<polygon fill="#f8fafc" stroke="transparent" points="478.5,-694.5 478.5,-740.5 738.5,-740.5 738.5,-694.5 478.5,-694.5"/>
<polygon fill="none" stroke="#059669" points="478.5,-694.5 478.5,-740.5 738.5,-740.5 738.5,-694.5 478.5,-694.5"/>
<text text-anchor="start" x="533.5" y="-715.4" font-family="Noto Sans CJK KR" font-weight="bold" font-size="12.00">WEB&#45;G02</text>
<text text-anchor="start" x="587.5" y="-715.4" font-family="Noto Sans CJK KR" font-size="12.00"> Web Apps 00~06</text>
<polygon fill="#d1fae5" stroke="transparent" points="478.5,-648.5 478.5,-694.5 738.5,-694.5 738.5,-648.5 478.5,-648.5"/>
<polygon fill="none" stroke="#059669" points="478.5,-648.5 478.5,-694.5 738.5,-694.5 738.5,-648.5 478.5,-648.5"/>
<text text-anchor="start" x="525" y="-669.4" font-family="Noto Sans CJK KR" font-weight="bold" font-size="12.00">P13</text>
<text text-anchor="start" x="547" y="-669.4" font-family="Noto Sans CJK KR" font-size="12.00"> web&#45;boundary&#45;inspector</text>
<polygon fill="#f8fafc" stroke="transparent" points="478.5,-602.5 478.5,-648.5 738.5,-648.5 738.5,-602.5 478.5,-602.5"/>
<polygon fill="none" stroke="#059669" points="478.5,-602.5 478.5,-648.5 738.5,-648.5 738.5,-602.5 478.5,-602.5"/>
<text text-anchor="start" x="535.5" y="-623.4" font-family="Noto Sans CJK KR" font-weight="bold" font-size="12.00">WEB&#45;G03</text>
<text text-anchor="start" x="589.5" y="-623.4" font-family="Noto Sans CJK KR" font-size="12.00"> Frontend 00~04</text>
<polygon fill="#a7f3d0" stroke="transparent" points="478.5,-548.5 478.5,-602.5 738.5,-602.5 738.5,-548.5 478.5,-548.5"/>
<polygon fill="none" stroke="#059669" points="478.5,-548.5 478.5,-602.5 738.5,-602.5 738.5,-548.5 478.5,-548.5"/>
<text text-anchor="start" x="559" y="-577.4" font-family="Noto Sans CJK KR" font-weight="bold" font-size="12.00">P14</text>
<text text-anchor="start" x="581" y="-577.4" font-family="Noto Sans CJK KR" font-size="12.00"> portfolio&#45;site</text>
<text text-anchor="start" x="585.5" y="-567.8" font-family="Noto Sans CJK KR" font-size="9.00">첫 일반 지원</text>
<polygon fill="#fef3c7" stroke="transparent" points="478.5,-502.5 478.5,-548.5 738.5,-548.5 738.5,-502.5 478.5,-502.5"/>
<polygon fill="none" stroke="#059669" points="478.5,-502.5 478.5,-548.5 738.5,-548.5 738.5,-502.5 478.5,-502.5"/>
<text text-anchor="start" x="538" y="-523.4" font-family="Noto Sans CJK KR" font-weight="bold" font-size="12.00">WEB&#45;S01</text>
<text text-anchor="start" x="590" y="-523.4" font-family="Noto Sans CJK KR" font-size="12.00"> CPP&#45;G04 동기화</text>
<polygon fill="#f8fafc" stroke="transparent" points="478.5,-445.5 478.5,-502.5 738.5,-502.5 738.5,-445.5 478.5,-445.5"/>
<polygon fill="none" stroke="#059669" points="478.5,-445.5 478.5,-502.5 738.5,-502.5 738.5,-445.5 478.5,-445.5"/>
<text text-anchor="start" x="581.5" y="-477.4" font-family="Noto Sans CJK KR" font-weight="bold" font-size="12.00">WEB&#45;G04</text>
<text text-anchor="start" x="487.5" y="-465.4" font-family="Noto Sans CJK KR" font-size="12.00">Networks 12 + Web Apps 07~09 + DB 01~12</text>
<polygon fill="#d1fae5" stroke="transparent" points="478.5,-399.5 478.5,-445.5 738.5,-445.5 738.5,-399.5 478.5,-399.5"/>
<polygon fill="none" stroke="#059669" points="478.5,-399.5 478.5,-445.5 738.5,-445.5 738.5,-399.5 478.5,-399.5"/>
<text text-anchor="start" x="564" y="-420.4" font-family="Noto Sans CJK KR" font-weight="bold" font-size="12.00">P15</text>
<text text-anchor="start" x="586" y="-420.4" font-family="Noto Sans CJK KR" font-size="12.00"> pong&#45;pong</text>
<polygon fill="#a7f3d0" stroke="transparent" points="478.5,-353.5 478.5,-399.5 738.5,-399.5 738.5,-353.5 478.5,-353.5"/>
<polygon fill="none" stroke="#059669" points="478.5,-353.5 478.5,-399.5 738.5,-399.5 738.5,-353.5 478.5,-353.5"/>
<text text-anchor="start" x="582" y="-374.4" font-family="Noto Sans CJK KR" font-weight="bold" font-size="12.00">WEB 완료</text>
<polygon fill="none" stroke="#059669" points="477.5,-352.5 477.5,-887.5 739.5,-887.5 739.5,-352.5 477.5,-352.5"/>
</g>
<!-- START&#45;&gt;TRACKS -->
<g id="edge1" class="edge">
<title>START&#45;&gt;TRACKS</title>
<path fill="none" stroke="#64748b" stroke-width="1.15" d="M378.5,-952.43C378.5,-942.54 378.5,-929.25 378.5,-913.66"/>
<polygon fill="#64748b" stroke="#64748b" stroke-width="1.15" points="381.02,-913.55 378.5,-906.35 375.98,-913.55 381.02,-913.55"/>
</g>
<!-- SYNC -->
<g id="node3" class="node">
<title>SYNC</title>
<path fill="#f8fafc" stroke="transparent" d="M525.5,-295C525.5,-295 231.5,-295 231.5,-295 225.5,-295 219.5,-289 219.5,-283 219.5,-283 219.5,-212 219.5,-212 219.5,-206 225.5,-200 231.5,-200 231.5,-200 525.5,-200 525.5,-200 531.5,-200 537.5,-206 537.5,-212 537.5,-212 537.5,-283 537.5,-283 537.5,-289 531.5,-295 525.5,-295"/>
<polygon fill="#fee2e2" stroke="transparent" points="220.5,-262.5 220.5,-293.5 536.5,-293.5 536.5,-262.5 220.5,-262.5"/>
<polygon fill="none" stroke="#dc2626" points="220.5,-262.5 220.5,-293.5 536.5,-293.5 536.5,-262.5 220.5,-262.5"/>
<text text-anchor="start" x="290.5" y="-275.9" font-family="Noto Sans CJK KR" font-weight="bold" font-size="12.00">트랙 간 하드 동기화는 두 곳만 유지</text>
<polygon fill="none" stroke="#dc2626" points="220.5,-231.5 220.5,-262.5 359.5,-262.5 359.5,-231.5 220.5,-231.5"/>
<text text-anchor="start" x="229.5" y="-244.9" font-family="Noto Sans CJK KR" font-weight="bold" font-size="12.00">CPP&#45;G02 → P09</text>
<polygon fill="none" stroke="#dc2626" points="359.5,-231.5 359.5,-262.5 536.5,-262.5 536.5,-231.5 359.5,-231.5"/>
<text text-anchor="start" x="368.5" y="-243.9" font-family="Noto Sans CJK KR" font-size="12.00">Algorithms 01~10 완료</text>
<polygon fill="none" stroke="#dc2626" points="220.5,-200.5 220.5,-231.5 359.5,-231.5 359.5,-200.5 220.5,-200.5"/>
<text text-anchor="start" x="229.5" y="-213.9" font-family="Noto Sans CJK KR" font-weight="bold" font-size="12.00">CPP&#45;G04 → WEB&#45;G04</text>
<polygon fill="none" stroke="#dc2626" points="359.5,-200.5 359.5,-231.5 536.5,-231.5 536.5,-200.5 359.5,-200.5"/>
<text text-anchor="start" x="368.5" y="-212.9" font-family="Noto Sans CJK KR" font-size="12.00">Networks 01~11 뒤 12장 진행</text>
<polygon fill="none" stroke="#dc2626" points="219.5,-200 219.5,-295 537.5,-295 537.5,-200 219.5,-200"/>
</g>
<!-- TRACKS&#45;&gt;SYNC -->
<g id="edge2" class="edge">
<title>TRACKS&#45;&gt;SYNC</title>
<path fill="none" stroke="#64748b" stroke-width="1.15" d="M378.5,-334.55C378.5,-323.07 378.5,-312.32 378.5,-302.56"/>
<polygon fill="#64748b" stroke="#64748b" stroke-width="1.15" points="381.02,-302.5 378.5,-295.3 375.98,-302.5 381.02,-302.5"/>
</g>
<!-- MERGE -->
<g id="node5" class="node">
<title>MERGE</title>
<path fill="#fde68a" stroke="#b45309" stroke-width="2" d="M366.71,-157.76C366.71,-157.76 179.29,-122.24 179.29,-122.24 173.4,-121.12 173.4,-118.88 179.29,-117.76 179.29,-117.76 366.71,-82.24 366.71,-82.24 372.6,-81.12 384.4,-81.12 390.29,-82.24 390.29,-82.24 577.71,-117.76 577.71,-117.76 583.6,-118.88 583.6,-121.12 577.71,-122.24 577.71,-122.24 390.29,-157.76 390.29,-157.76 384.4,-158.88 372.6,-158.88 366.71,-157.76"/>
<text text-anchor="middle" x="378.5" y="-123.4" font-family="Noto Sans CJK KR" font-size="12.00">◇ 3트랙 합류</text>
<text text-anchor="middle" x="378.5" y="-110.4" font-family="Noto Sans CJK KR" font-size="12.00">P01~P15 + G00~G11 필수 범위 완료</text>
</g>
<!-- SYNC&#45;&gt;MERGE -->
<g id="edge3" class="edge">
<title>SYNC&#45;&gt;MERGE</title>
<path fill="none" stroke="#64748b" stroke-width="1.15" d="M378.5,-199.77C378.5,-189.34 378.5,-178.27 378.5,-167.84"/>
<polygon fill="#64748b" stroke="#64748b" stroke-width="1.15" points="381.02,-167.57 378.5,-160.37 375.98,-167.57 381.02,-167.57"/>
</g>
<!-- RULE -->
<g id="node4" class="node">
<title>RULE</title>
<polygon fill="#f8fafc" stroke="#475569" points="621,-999 476,-999 476,-946 627,-946 627,-993 621,-999"/>
<polyline fill="none" stroke="#475569" points="621,-999 621,-993 "/>
<polyline fill="none" stroke="#475569" points="627,-993 621,-993 "/>
<text text-anchor="middle" x="551.5" y="-982.4" font-family="Noto Sans CJK KR" font-size="12.00">P만 원자적</text>
<text text-anchor="middle" x="551.5" y="-969.4" font-family="Noto Sans CJK KR" font-size="12.00">G는 장 단위 분할 가능</text>
<text text-anchor="middle" x="551.5" y="-956.4" font-family="Noto Sans CJK KR" font-size="12.00">필수 G 장·실습 생략 금지</text>
</g>
<!-- RULE&#45;&gt;TRACKS -->
<g id="edge5" class="edge">
<title>RULE&#45;&gt;TRACKS</title>
<path fill="none" stroke="#94a3b8" stroke-width="1.15" stroke-dasharray="5,2" d="M538.78,-945.76C534.29,-936.69 528.8,-925.57 522.57,-912.97"/>
<polygon fill="#94a3b8" stroke="#94a3b8" stroke-width="1.15" points="524.7,-911.59 519.25,-906.25 520.18,-913.82 524.7,-911.59"/>
</g>
<!-- POST -->
<g id="node6" class="node">
<title>POST</title>
<path fill="#fee2e2" stroke="#b91c1c" stroke-width="1.8" d="M493.5,-40C493.5,-40 263.5,-40 263.5,-40 257.5,-40 251.5,-34 251.5,-28 251.5,-28 251.5,-12 251.5,-12 251.5,-6 257.5,0 263.5,0 263.5,0 493.5,0 493.5,0 499.5,0 505.5,-6 505.5,-12 505.5,-12 505.5,-28 505.5,-28 505.5,-34 499.5,-40 493.5,-40"/>
<text text-anchor="middle" x="378.5" y="-23.4" font-family="Noto Sans CJK KR" font-size="12.00">G12 → P16 → G13 → P17 → P18 → P19</text>
<text text-anchor="middle" x="378.5" y="-10.4" font-family="Noto Sans CJK KR" font-size="12.00">→ G14 → P20 → P21 → P22 → P23 → P24</text>
</g>
<!-- MERGE&#45;&gt;POST -->
<g id="edge4" class="edge">
<title>MERGE&#45;&gt;POST</title>
<path fill="none" stroke="#64748b" stroke-width="1.15" d="M378.5,-79.99C378.5,-69.1 378.5,-57.52 378.5,-47.53"/>
<polygon fill="#64748b" stroke="#64748b" stroke-width="1.15" points="381.02,-47.44 378.5,-40.24 375.98,-47.44 381.02,-47.44"/>
</g>
</g>
</svg>
